<?xml version="1.0" encoding="UTF-8"?>
<svg id="Layer_1" data-name="Layer 1" xmlns="http://www.w3.org/2000/svg" viewBox="0 0 1680.78 279.9">
  <defs>
    <style>
      .cls-1 {
        fill: #0094ce;
      }
    </style>
  </defs>
  <g>
    <polygon class="cls-1" points="483 58.75 411.31 221.15 457.94 221.15 505.16 103.31 552.37 221.15 599.93 221.15 528.01 58.75 483 58.75"/>
    <polygon class="cls-1" points="773.6 58.75 717.78 152.83 660.38 58.75 622.8 58.75 622.8 221.15 665.02 221.15 665.02 137.1 706.79 204.91 727.2 204.91 769.22 134.41 769.43 221.15 811.42 221.15 811.19 58.75 773.6 58.75"/>
    <path class="cls-1" d="M946.81,65.94c-10.83-4.79-23.66-7.19-38.51-7.19h-74.01v162.4h45.94v-42.46h28.07c14.85,0,27.69-2.47,38.51-7.42,10.82-4.95,19.18-11.87,25.06-20.77,5.88-8.89,8.82-19.52,8.82-31.9s-2.94-22.85-8.82-31.9c-5.88-9.05-14.23-15.97-25.06-20.77ZM927.44,136.35c-4.72,4.26-11.95,6.38-21.69,6.38h-25.52v-47.79h25.52c9.74,0,16.97,2.09,21.69,6.26,4.72,4.18,7.08,9.98,7.08,17.4s-2.36,13.5-7.08,17.75Z"/>
    <rect class="cls-1" x="1003.55" y="185.11" width="150.16" height="36.04"/>
    <rect class="cls-1" x="1003.55" y="58.75" width="150.16" height="34.34"/>
    <rect class="cls-1" x="1003.55" y="119.92" width="150.16" height="36.04"/>
    <path class="cls-1" d="M1314.15,150.51c5.88-8.89,8.82-19.52,8.82-31.9s-2.94-22.85-8.82-31.9c-5.88-9.05-14.23-15.97-25.06-20.77-10.83-4.79-23.67-7.19-38.51-7.19h-74.01v162.4h45.94v-43.39h25.15l29.6,43.39h48.72l-34.96-51.24c9.88-4.6,17.61-11.05,23.13-19.4ZM1269.73,136.35c-4.72,4.26-11.95,6.38-21.69,6.38h-25.52v-47.79h25.52c9.75,0,16.97,2.09,21.69,6.26,4.72,4.18,7.08,9.98,7.08,17.4s-2.36,13.5-7.08,17.75Z"/>
    <polygon class="cls-1" points="1420.54 58.75 1348.85 221.15 1395.49 221.15 1442.7 103.31 1489.91 221.15 1537.47 221.15 1465.55 58.75 1420.54 58.75"/>
    <polygon class="cls-1" points="1535.31 58.75 1535.31 94.94 1585.19 94.94 1585.19 221.15 1630.9 221.15 1630.9 94.94 1680.78 94.94 1680.78 58.75 1535.31 58.75"/>
  </g>
  <polygon class="cls-1" points="327.33 211.85 228.61 0 130.97 0 162.68 68.05 98.72 68.05 0 279.9 97.64 279.9 179.52 104.19 201.46 151.27 173.47 151.69 160.86 178.36 213.82 177.79 229.69 211.85 327.33 211.85"/>
</svg>