<?xml version="1.0" encoding="UTF-8"?>
<svg id="Layer_1" data-name="Layer 1" xmlns="http://www.w3.org/2000/svg" viewBox="0 0 1223.05 937.52">
  <defs>
    <style>
      .cls-1 {
        fill: #0094ce;
      }
    </style>
  </defs>
  <polygon class="cls-1" points="841.19 297.28 702.66 0 565.65 0 610.15 95.5 520.39 95.5 381.86 392.77 518.88 392.77 633.78 146.21 664.56 212.27 625.29 212.86 607.59 250.29 681.9 249.48 704.18 297.28 841.19 297.28"/>
  <g>
    <g>
      <path class="cls-1" d="M.29,937.52l69.04-156.39h43.34l69.26,156.39h-45.8l-54.07-134.95h17.2l-54.07,134.95H.29Z"/>
      <path class="cls-1" d="M203.95,937.52v-156.39h36.19l65.01,106.57h-19.21l63.23-106.57h36.19l.22,156.39h-40.44l-.22-94.73h6.7l-47.14,79.09h-19.66l-48.71-79.09h8.49v94.73h-40.66Z"/>
      <path class="cls-1" d="M407.61,937.52v-156.39h71.27c14.3,0,26.66,2.31,37.09,6.93,10.42,4.62,18.47,11.28,24.13,20,5.66,8.71,8.49,18.95,8.49,30.72s-2.83,22.16-8.49,30.72c-5.66,8.57-13.71,15.23-24.13,20-10.43,4.77-22.79,7.15-37.09,7.15h-46.69l19.66-19.21v60.1h-44.24ZM451.84,882.34l-19.66-20.33h44.24c9.38,0,16.34-2.05,20.89-6.14,4.54-4.09,6.81-9.79,6.81-17.09s-2.27-12.73-6.81-16.76c-4.55-4.02-11.51-6.03-20.89-6.03h-44.24l19.66-20.55v86.91Z"/>
      <path class="cls-1" d="M570.6,840.03h144.6v34.71h-144.6v-34.71ZM570.6,781.13h144.6v33.07h-144.6v-33.07ZM570.6,902.82h144.6v34.71h-144.6v-34.71Z"/>
      <path class="cls-1" d="M834.19,937.52h46.92l-33.67-49.35c9.51-4.43,16.96-10.64,22.28-18.69,5.66-8.56,8.49-18.8,8.49-30.72s-2.83-22.01-8.49-30.72c-5.66-8.71-13.71-15.38-24.13-20-10.43-4.62-22.79-6.93-37.09-6.93h-71.27v156.39h44.24v-41.78h24.22l28.51,41.78ZM826.93,822.01c4.54,4.02,6.81,9.61,6.81,16.76s-2.27,13-6.81,17.09c-4.55,4.1-11.51,6.14-20.89,6.14h-24.58v-46.03h24.58c9.38,0,16.35,2.01,20.89,6.03Z"/>
      <path class="cls-1" d="M903.13,937.52l69.04-156.39h43.34l69.26,156.39h-45.8l-54.07-134.95h17.2l-54.07,134.95h-44.91Z"/>
      <path class="cls-1" d="M1130.72,937.52v-121.54h-48.03v-34.85h140.08v34.85h-48.04v121.54h-44.01Z"/>
    </g>
    <g>
      <rect class="cls-1" x="164.41" y="529.78" width="33.21" height="24.29"/>
      <rect class="cls-1" x="122.27" y="529.78" width="33.21" height="24.29"/>
      <path class="cls-1" d="M308.76,630.46H52.52c-5.67,0-9.62-1.35-11.83-4.05-2.21-2.7-3.32-7.3-3.32-13.8v-14.32H0v13.91c0,9.13,1.21,16.74,3.63,22.83,2.42,6.09,5.74,11,9.96,14.74,4.22,3.74,9.13,6.4,14.74,7.99,5.6,1.59,11.66,2.39,18.16,2.39h305.44v-88.43h-43.18v58.74Z"/>
      <rect class="cls-1" x="372.7" y="511.72" width="43.18" height="148.42"/>
      <rect class="cls-1" x="826.91" y="679.86" width="33.21" height="24.29"/>
      <rect class="cls-1" x="869.05" y="679.86" width="33.21" height="24.29"/>
      <rect class="cls-1" x="970.02" y="679.86" width="38.82" height="24.29"/>
      <path class="cls-1" d="M1143.35,570.15c-5.54-4.08-12.07-7.09-19.62-9.03-7.54-1.94-15.6-2.91-24.18-2.91s-16.54,1-23.87,3.01c-7.33,2.01-13.7,5.12-19.1,9.34-5.4,4.22-9.62,9.55-12.66,15.98-3.05,6.43-4.57,14.01-4.57,22.73,0,7.06,2.63,13.84,7.89,20.34v.83h-28.44c-3.32,0-5.95-1-7.89-3.01-1.94-2.01-2.91-5.64-2.91-10.9v-44.84h-43.18v45.67c0,4.84-1.21,8.23-3.63,10.17-2.42,1.94-5.02,2.91-7.78,2.91h-51.56c-3.32,0-5.95-1-7.89-3.01-1.94-2.01-2.91-5.64-2.91-10.9v-44.84h-43.18v45.67c0,4.84-1.21,8.23-3.63,10.17-2.42,1.94-5.02,2.91-7.78,2.91h-328.64c-1.94,0-3.84-.14-5.71-.42-1.87-.28-3.49-.8-4.88-1.56-1.38-.76-2.49-1.83-3.32-3.22s-1.25-3.25-1.25-5.6v-47.95h-43.18v85.11c0,8.72-.66,15.19-1.97,19.41-1.32,4.22-3.77,6.33-7.37,6.33-2.35,0-4.6-.17-6.75-.52-2.15-.35-4.05-1.07-5.71-2.18v26.36c2.63,1.11,5.67,1.94,9.13,2.49,3.46.55,6.78.83,9.96.83,8.44,0,15.57-1.14,21.38-3.43,5.81-2.28,10.55-5.64,14.22-10.07,3.67-4.43,6.3-9.93,7.89-16.5,1.59-6.57,2.39-14.15,2.39-22.73v-9.76h.83c1.52,4.01,3.67,7.2,6.44,9.55,2.77,2.35,6.09,3.53,9.96,3.53h330.5c3.04,0,6.3-.21,9.76-.62,3.46-.42,6.89-1.18,10.28-2.28,3.39-1.11,6.68-2.56,9.86-4.36,3.18-1.8,6.02-4.15,8.51-7.06,2.49,4.57,5.64,8.1,9.44,10.59,3.81,2.49,8.34,3.74,13.6,3.74h55.51c3.04,0,6.3-.21,9.76-.62,3.46-.42,6.89-1.18,10.28-2.28,3.39-1.11,6.68-2.56,9.86-4.36,3.18-1.8,6.02-4.15,8.51-7.06,2.49,4.57,5.64,8.1,9.44,10.59,3.81,2.49,8.34,3.74,13.6,3.74h80.75c8.3,0,16.16-.93,23.56-2.8,7.4-1.87,13.94-4.84,19.62-8.93,5.67-4.08,10.17-9.34,13.49-15.78,3.32-6.43,4.98-14.22,4.98-23.35s-1.59-16.92-4.77-23.35c-3.18-6.43-7.54-11.69-13.08-15.78ZM1115.95,618.11c-.55,2.7-1.52,5.09-2.91,7.16-1.38,2.07-3.15,3.7-5.29,4.88-2.15,1.18-4.88,1.76-8.2,1.76s-6.05-.59-8.2-1.76c-2.14-1.18-3.91-2.8-5.29-4.88-1.38-2.07-2.35-4.46-2.91-7.16-.55-2.7-.83-5.64-.83-8.82s.28-5.95.83-8.72c.55-2.77,1.52-5.19,2.91-7.26,1.38-2.08,3.15-3.74,5.29-4.98,2.15-1.25,4.88-1.87,8.2-1.87s6.06.62,8.2,1.87c2.14,1.24,3.91,2.91,5.29,4.98,1.38,2.07,2.35,4.5,2.91,7.26s.83,5.67.83,8.72-.28,6.12-.83,8.82Z"/>
      <rect class="cls-1" x="1178.84" y="511.72" width="43.18" height="148.42"/>
      <path class="cls-1" d="M1204.79,477.89c-3.32,0-4.98-1.8-4.98-5.4,0-1.66.42-2.98,1.25-3.94.83-.97,1.8-1.45,2.91-1.45,2.49,0,3.81,1.31,3.94,3.94h14.32c-.14-2.63-.8-4.88-1.97-6.75-1.18-1.87-2.63-3.39-4.36-4.57-1.73-1.18-3.7-2.04-5.92-2.59-2.21-.55-4.36-.83-6.43-.83-5.54,0-10.14,1.32-13.8,3.95-3.67,2.63-5.5,6.37-5.5,11.21,0,1.25.21,2.42.62,3.53.42,1.11.83,1.94,1.25,2.49v.41h-5.6v11.83h42.55v-11.83h-18.27Z"/>
    </g>
  </g>
</svg>